<!--?xml version="1.0" encoding="UTF-8"?-->
<svg width="1200" height="320" viewBox="0 0 1200 320" fill="none" xmlns="http://www.w3.org/2000/svg">
  <title>BitBima — Horizontal</title>
  <defs>
    <linearGradient id="bbGradient" x1="0" y1="0" x2="300" y2="300">
      <stop stop-color="#06B6D4"></stop>
      <stop offset="1" stop-color="#2563EB"></stop>
    </linearGradient>
  </defs>

  <!-- Icon (same geometry, scaled) -->
  <g transform="translate(24,24) scale(0.95)">
    <path d="M128 16c42.4 0 80 16 80 16v80c0 48-34.3 85.5-80 112C82.3 197.5 48 160 48 112V32s37.6-16 80-16z" fill="url(#bbGradient)" fill-opacity="0.14" stroke="url(#bbGradient)" stroke-width="8" stroke-linejoin="round"></path>
    <path d="M128 146s-36-18-36-46c0-14 10-26 24-26 7.5 0 14.5 3.5 19 9 4.5-5.5 11.5-9 19-9 14 0 24 12 24 26 0 28-36 46-36 46z" fill="#111827"></path>
    <g stroke="url(#bbGradient)" stroke-width="8" stroke-linecap="round">
      <line x1="92" y1="184" x2="124" y2="184"></line>
      <line x1="132" y1="184" x2="164" y2="184"></line>
    </g>
    <g fill="#111827">
      <circle cx="88" cy="184" r="8"></circle>
      <circle cx="128" cy="184" r="8"></circle>
      <circle cx="168" cy="184" r="8"></circle>
    </g>
  </g>

  <!-- Wordmark -->
  <g font-family="Inter, ui-sans-serif, system-ui, -apple-system, Segoe UI, Roboto" font-weight="800">
    <text x="220" y="130" font-size="84" fill="#0F172A" letter-spacing="0.5">
      <tspan fill="url(#bbGradient)">Bit</tspan><tspan>Bima</tspan>
    </text>
  </g>

  <!-- Tagline -->
  <text x="220" y="190" font-size="28" fill="#475569" font-family="Inter, ui-sans-serif, system-ui">Watch your health, guard your wealth.</text>
</svg>
