<!--?xml version="1.0" encoding="UTF-8"?-->
<svg width="256" height="256" viewBox="0 0 256 256" fill="none" xmlns="http://www.w3.org/2000/svg">
  <title>BitBima Icon</title>
  <defs>
    <linearGradient id="bbGradient" x1="40" y1="16" x2="216" y2="240" gradientUnits="userSpaceOnUse">
      <stop stop-color="#06B6D4"></stop>
      <stop offset="1" stop-color="#2563EB"></stop>
    </linearGradient>
  </defs>

  <!-- Shield -->
  <path d="M128 16c42.4 0 80 16 80 16v80c0 48-34.3 85.5-80 112C82.3 197.5 48 160 48 112V32s37.6-16 80-16z" fill="url(#bbGradient)" fill-opacity="0.14" stroke="url(#bbGradient)" stroke-width="8" stroke-linejoin="round"></path>

  <!-- Heart (health) -->
  <path d="M128 146s-36-18-36-46c0-14 10-26 24-26 7.5 0 14.5 3.5 19 9 4.5-5.5 11.5-9 19-9 14 0 24 12 24 26 0 28-36 46-36 46z" fill="#FFFFFF"></path>

  <!-- Chain (blockchain) -->
  <g stroke="url(#bbGradient)" stroke-width="8" stroke-linecap="round">
    <line x1="92" y1="184" x2="124" y2="184"></line>
    <line x1="132" y1="184" x2="164" y2="184"></line>
  </g>
  <g fill="#FFFFFF">
    <circle cx="88" cy="184" r="8"></circle>
    <circle cx="128" cy="184" r="8"></circle>
    <circle cx="168" cy="184" r="8"></circle>
  </g>
</svg>
